<svg width="379" height="338" viewBox="0 0 379 338" fill="none" xmlns="http://www.w3.org/2000/svg">
<g clip-path="url(#clip0_1_244)">
<path d="M0 20C0 8.95431 8.95431 0 20 0H359C370.046 0 379 8.95431 379 20V318C379 329.046 370.046 338 359 338H20C8.9543 338 0 329.046 0 318V20Z" fill="#F2F2F2"/>
<path d="M152.682 213.242V219.416C152.682 220.284 152.892 220.928 153.312 221.348C153.742 221.768 154.334 221.978 155.09 221.978C155.837 221.978 156.42 221.768 156.84 221.348C157.27 220.928 157.484 220.284 157.484 219.416V213.242H158.758V219.402C158.758 220.214 158.595 220.9 158.268 221.46C157.942 222.011 157.498 222.421 156.938 222.692C156.388 222.963 155.767 223.098 155.076 223.098C154.386 223.098 153.76 222.963 153.2 222.692C152.65 222.421 152.211 222.011 151.884 221.46C151.567 220.9 151.408 220.214 151.408 219.402V213.242H152.682ZM169.408 216.098C169.408 216.91 169.128 217.587 168.568 218.128C168.017 218.66 167.172 218.926 166.034 218.926H164.158V223H162.884V213.242H166.034C167.135 213.242 167.97 213.508 168.54 214.04C169.118 214.572 169.408 215.258 169.408 216.098ZM166.034 217.876C166.743 217.876 167.266 217.722 167.602 217.414C167.938 217.106 168.106 216.667 168.106 216.098C168.106 214.894 167.415 214.292 166.034 214.292H164.158V217.876H166.034ZM184.24 213.242V214.278H179.998V217.568H183.442V218.604H179.998V223H178.724V213.242H184.24ZM192.916 223L190.592 219.01H189.052V223H187.778V213.242H190.928C191.666 213.242 192.286 213.368 192.79 213.62C193.304 213.872 193.686 214.213 193.938 214.642C194.19 215.071 194.316 215.561 194.316 216.112C194.316 216.784 194.12 217.377 193.728 217.89C193.346 218.403 192.767 218.744 191.992 218.912L194.442 223H192.916ZM189.052 217.988H190.928C191.619 217.988 192.137 217.82 192.482 217.484C192.828 217.139 193 216.681 193 216.112C193 215.533 192.828 215.085 192.482 214.768C192.146 214.451 191.628 214.292 190.928 214.292H189.052V217.988ZM202.72 223.098C201.814 223.098 200.988 222.888 200.242 222.468C199.495 222.039 198.902 221.446 198.464 220.69C198.034 219.925 197.82 219.066 197.82 218.114C197.82 217.162 198.034 216.308 198.464 215.552C198.902 214.787 199.495 214.194 200.242 213.774C200.988 213.345 201.814 213.13 202.72 213.13C203.634 213.13 204.465 213.345 205.212 213.774C205.958 214.194 206.546 214.782 206.976 215.538C207.405 216.294 207.62 217.153 207.62 218.114C207.62 219.075 207.405 219.934 206.976 220.69C206.546 221.446 205.958 222.039 205.212 222.468C204.465 222.888 203.634 223.098 202.72 223.098ZM202.72 221.992C203.401 221.992 204.012 221.833 204.554 221.516C205.104 221.199 205.534 220.746 205.842 220.158C206.159 219.57 206.318 218.889 206.318 218.114C206.318 217.33 206.159 216.649 205.842 216.07C205.534 215.482 205.109 215.029 204.568 214.712C204.026 214.395 203.41 214.236 202.72 214.236C202.029 214.236 201.413 214.395 200.872 214.712C200.33 215.029 199.901 215.482 199.584 216.07C199.276 216.649 199.122 217.33 199.122 218.114C199.122 218.889 199.276 219.57 199.584 220.158C199.901 220.746 200.33 221.199 200.872 221.516C201.422 221.833 202.038 221.992 202.72 221.992ZM218.974 223H217.7L212.576 215.23V223H211.302V213.228H212.576L217.7 220.984V213.228H218.974V223ZM229.151 213.242V214.278H226.491V223H225.217V214.278H222.543V213.242H229.151Z" fill="#222222"/>
<path d="M118.347 137.136C118.347 140.464 117.515 143.653 115.851 146.704C114.187 149.685 111.726 152.181 108.467 154.192C105.278 156.203 101.43 157.347 96.9231 157.624V166.048H91.3071V157.624C84.9977 157.069 79.8671 155.059 75.9151 151.592C71.9631 148.056 69.9524 143.584 69.8831 138.176H79.9711C80.2484 141.088 81.3231 143.619 83.1951 145.768C85.1364 147.917 87.8404 149.269 91.3071 149.824V123.824C86.6617 122.645 82.9177 121.432 80.0751 120.184C77.2324 118.936 74.8057 116.995 72.7951 114.36C70.7844 111.725 69.7791 108.189 69.7791 103.752C69.7791 98.136 71.7204 93.4907 75.6031 89.816C79.5551 86.1413 84.7897 84.096 91.3071 83.68V75.048H96.9231V83.68C102.816 84.1653 107.566 86.072 111.171 89.4C114.776 92.6587 116.856 96.9227 117.411 102.192H107.323C106.976 99.7653 105.902 97.5813 104.099 95.64C102.296 93.6293 99.9044 92.312 96.9231 91.688V117.064C101.499 118.243 105.208 119.456 108.051 120.704C110.963 121.883 113.39 123.789 115.331 126.424C117.342 129.059 118.347 132.629 118.347 137.136ZM79.4511 103.232C79.4511 106.629 80.4564 109.229 82.4671 111.032C84.4777 112.835 87.4244 114.325 91.3071 115.504V91.48C87.7017 91.8267 84.8244 93.0053 82.6751 95.016C80.5257 96.9573 79.4511 99.696 79.4511 103.232ZM96.9231 149.928C100.667 149.512 103.579 148.16 105.659 145.872C107.808 143.584 108.883 140.845 108.883 137.656C108.883 134.259 107.843 131.659 105.763 129.856C103.683 127.984 100.736 126.493 96.9231 125.384V149.928ZM140.186 90.44V81.808H159.738V157H150.17V90.44H140.186ZM181.707 140.256V133.08L218.211 82.536H229.547V132.04H239.947V140.256H229.547V157H220.187V140.256H181.707ZM220.603 92.416L192.627 132.04H220.603V92.416ZM269.569 136.824C270.262 140.776 271.857 143.827 274.353 145.976C276.918 148.125 280.35 149.2 284.649 149.2C290.404 149.2 294.633 146.947 297.337 142.44C300.11 137.933 301.428 130.341 301.289 119.664C299.833 122.784 297.406 125.245 294.009 127.048C290.612 128.781 286.833 129.648 282.673 129.648C278.028 129.648 273.868 128.712 270.193 126.84C266.588 124.899 263.745 122.091 261.665 118.416C259.585 114.741 258.545 110.304 258.545 105.104C258.545 97.6853 260.694 91.7227 264.993 87.216C269.292 82.64 275.393 80.352 283.297 80.352C293.004 80.352 299.798 83.5067 303.681 89.816C307.633 96.1253 309.609 105.52 309.609 118C309.609 126.736 308.812 133.947 307.217 139.632C305.692 145.317 303.057 149.651 299.313 152.632C295.638 155.613 290.577 157.104 284.129 157.104C277.057 157.104 271.545 155.197 267.593 151.384C263.641 147.571 261.388 142.717 260.833 136.824H269.569ZM284.233 121.64C288.878 121.64 292.692 120.219 295.673 117.376C298.654 114.464 300.145 110.547 300.145 105.624C300.145 100.424 298.689 96.2293 295.777 93.04C292.865 89.8507 288.774 88.256 283.505 88.256C278.652 88.256 274.769 89.7813 271.857 92.832C269.014 95.8827 267.593 99.904 267.593 104.896C267.593 109.957 269.014 114.013 271.857 117.064C274.7 120.115 278.825 121.64 284.233 121.64Z" fill="#FF9209"/>
<path d="M157.535 65.668H161.927V67H155.897V54.454H157.535V65.668ZM164.512 55.534C164.2 55.534 163.936 55.426 163.72 55.21C163.504 54.994 163.396 54.73 163.396 54.418C163.396 54.106 163.504 53.842 163.72 53.626C163.936 53.41 164.2 53.302 164.512 53.302C164.812 53.302 165.064 53.41 165.268 53.626C165.484 53.842 165.592 54.106 165.592 54.418C165.592 54.73 165.484 54.994 165.268 55.21C165.064 55.426 164.812 55.534 164.512 55.534ZM165.304 57.136V67H163.666V57.136H165.304ZM172.11 58.486H170.04V67H168.402V58.486H167.124V57.136H168.402V56.434C168.402 55.33 168.684 54.526 169.248 54.022C169.824 53.506 170.742 53.248 172.002 53.248V54.616C171.282 54.616 170.772 54.76 170.472 55.048C170.184 55.324 170.04 55.786 170.04 56.434V57.136H172.11V58.486ZM183.02 61.69C183.02 62.002 183.002 62.332 182.966 62.68H175.082C175.142 63.652 175.472 64.414 176.072 64.966C176.684 65.506 177.422 65.776 178.286 65.776C178.994 65.776 179.582 65.614 180.05 65.29C180.53 64.954 180.866 64.51 181.058 63.958H182.822C182.558 64.906 182.03 65.68 181.238 66.28C180.446 66.868 179.462 67.162 178.286 67.162C177.35 67.162 176.51 66.952 175.766 66.532C175.034 66.112 174.458 65.518 174.038 64.75C173.618 63.97 173.408 63.07 173.408 62.05C173.408 61.03 173.612 60.136 174.02 59.368C174.428 58.6 174.998 58.012 175.73 57.604C176.474 57.184 177.326 56.974 178.286 56.974C179.222 56.974 180.05 57.178 180.77 57.586C181.49 57.994 182.042 58.558 182.426 59.278C182.822 59.986 183.02 60.79 183.02 61.69ZM181.328 61.348C181.328 60.724 181.19 60.19 180.914 59.746C180.638 59.29 180.26 58.948 179.78 58.72C179.312 58.48 178.79 58.36 178.214 58.36C177.386 58.36 176.678 58.624 176.09 59.152C175.514 59.68 175.184 60.412 175.1 61.348H181.328ZM187.18 58.486V64.3C187.18 64.78 187.282 65.122 187.486 65.326C187.69 65.518 188.044 65.614 188.548 65.614H189.754V67H188.278C187.366 67 186.682 66.79 186.226 66.37C185.77 65.95 185.542 65.26 185.542 64.3V58.486H184.264V57.136H185.542V54.652H187.18V57.136H189.754V58.486H187.18ZM192.585 55.534C192.273 55.534 192.009 55.426 191.793 55.21C191.577 54.994 191.469 54.73 191.469 54.418C191.469 54.106 191.577 53.842 191.793 53.626C192.009 53.41 192.273 53.302 192.585 53.302C192.885 53.302 193.137 53.41 193.341 53.626C193.557 53.842 193.665 54.106 193.665 54.418C193.665 54.73 193.557 54.994 193.341 55.21C193.137 55.426 192.885 55.534 192.585 55.534ZM193.377 57.136V67H191.739V57.136H193.377ZM208.03 56.956C208.798 56.956 209.482 57.118 210.082 57.442C210.682 57.754 211.156 58.228 211.504 58.864C211.852 59.5 212.026 60.274 212.026 61.186V67H210.406V61.42C210.406 60.436 210.16 59.686 209.668 59.17C209.188 58.642 208.534 58.378 207.706 58.378C206.854 58.378 206.176 58.654 205.672 59.206C205.168 59.746 204.916 60.532 204.916 61.564V67H203.296V61.42C203.296 60.436 203.05 59.686 202.558 59.17C202.078 58.642 201.424 58.378 200.596 58.378C199.744 58.378 199.066 58.654 198.562 59.206C198.058 59.746 197.806 60.532 197.806 61.564V67H196.168V57.136H197.806V58.558C198.13 58.042 198.562 57.646 199.102 57.37C199.654 57.094 200.26 56.956 200.92 56.956C201.748 56.956 202.48 57.142 203.116 57.514C203.752 57.886 204.226 58.432 204.538 59.152C204.814 58.456 205.27 57.916 205.906 57.532C206.542 57.148 207.25 56.956 208.03 56.956ZM223.713 61.69C223.713 62.002 223.695 62.332 223.659 62.68H215.775C215.835 63.652 216.165 64.414 216.765 64.966C217.377 65.506 218.115 65.776 218.979 65.776C219.687 65.776 220.275 65.614 220.743 65.29C221.223 64.954 221.559 64.51 221.751 63.958H223.515C223.251 64.906 222.723 65.68 221.931 66.28C221.139 66.868 220.155 67.162 218.979 67.162C218.043 67.162 217.203 66.952 216.459 66.532C215.727 66.112 215.151 65.518 214.731 64.75C214.311 63.97 214.101 63.07 214.101 62.05C214.101 61.03 214.305 60.136 214.713 59.368C215.121 58.6 215.691 58.012 216.423 57.604C217.167 57.184 218.019 56.974 218.979 56.974C219.915 56.974 220.743 57.178 221.463 57.586C222.183 57.994 222.735 58.558 223.119 59.278C223.515 59.986 223.713 60.79 223.713 61.69ZM222.021 61.348C222.021 60.724 221.883 60.19 221.607 59.746C221.331 59.29 220.953 58.948 220.473 58.72C220.005 58.48 219.483 58.36 218.907 58.36C218.079 58.36 217.371 58.624 216.783 59.152C216.207 59.68 215.877 60.412 215.793 61.348H222.021Z" fill="#FF9209"/>
<path d="M125 252C125 249.791 126.791 248 129 248H250C252.209 248 254 249.791 254 252V284C254 286.209 252.209 288 250 288H129C126.791 288 125 286.209 125 284V252Z" fill="#FF9209"/>
<path d="M157.239 266.974C157.594 267.03 157.916 267.175 158.205 267.408C158.504 267.641 158.737 267.931 158.905 268.276C159.083 268.621 159.171 268.99 159.171 269.382C159.171 269.877 159.045 270.325 158.793 270.726C158.541 271.118 158.173 271.431 157.687 271.664C157.211 271.888 156.647 272 155.993 272H152.353V262.242H155.853C156.516 262.242 157.081 262.354 157.547 262.578C158.014 262.793 158.364 263.087 158.597 263.46C158.831 263.833 158.947 264.253 158.947 264.72C158.947 265.299 158.789 265.779 158.471 266.162C158.163 266.535 157.753 266.806 157.239 266.974ZM153.627 266.456H155.769C156.367 266.456 156.829 266.316 157.155 266.036C157.482 265.756 157.645 265.369 157.645 264.874C157.645 264.379 157.482 263.992 157.155 263.712C156.829 263.432 156.357 263.292 155.741 263.292H153.627V266.456ZM155.881 270.95C156.516 270.95 157.011 270.801 157.365 270.502C157.72 270.203 157.897 269.788 157.897 269.256C157.897 268.715 157.711 268.29 157.337 267.982C156.964 267.665 156.465 267.506 155.839 267.506H153.627V270.95H155.881ZM164.185 262.242V268.416C164.185 269.284 164.395 269.928 164.815 270.348C165.245 270.768 165.837 270.978 166.593 270.978C167.34 270.978 167.923 270.768 168.343 270.348C168.773 269.928 168.987 269.284 168.987 268.416V262.242H170.261V268.402C170.261 269.214 170.098 269.9 169.771 270.46C169.445 271.011 169.001 271.421 168.441 271.692C167.891 271.963 167.27 272.098 166.579 272.098C165.889 272.098 165.263 271.963 164.703 271.692C164.153 271.421 163.714 271.011 163.387 270.46C163.07 269.9 162.911 269.214 162.911 268.402V262.242H164.185ZM181.219 262.242L178.041 268.318V272H176.767V268.318L173.575 262.242H174.989L177.397 267.184L179.805 262.242H181.219ZM197.967 272H196.693L191.569 264.23V272H190.295V262.228H191.569L196.693 269.984V262.228H197.967V272ZM206.563 272.098C205.657 272.098 204.831 271.888 204.085 271.468C203.338 271.039 202.745 270.446 202.307 269.69C201.877 268.925 201.663 268.066 201.663 267.114C201.663 266.162 201.877 265.308 202.307 264.552C202.745 263.787 203.338 263.194 204.085 262.774C204.831 262.345 205.657 262.13 206.563 262.13C207.477 262.13 208.308 262.345 209.055 262.774C209.801 263.194 210.389 263.782 210.819 264.538C211.248 265.294 211.463 266.153 211.463 267.114C211.463 268.075 211.248 268.934 210.819 269.69C210.389 270.446 209.801 271.039 209.055 271.468C208.308 271.888 207.477 272.098 206.563 272.098ZM206.563 270.992C207.244 270.992 207.855 270.833 208.397 270.516C208.947 270.199 209.377 269.746 209.685 269.158C210.002 268.57 210.161 267.889 210.161 267.114C210.161 266.33 210.002 265.649 209.685 265.07C209.377 264.482 208.952 264.029 208.411 263.712C207.869 263.395 207.253 263.236 206.563 263.236C205.872 263.236 205.256 263.395 204.715 263.712C204.173 264.029 203.744 264.482 203.427 265.07C203.119 265.649 202.965 266.33 202.965 267.114C202.965 267.889 203.119 268.57 203.427 269.158C203.744 269.746 204.173 270.199 204.715 270.516C205.265 270.833 205.881 270.992 206.563 270.992ZM227.408 262.242L224.58 272H223.152L220.884 264.146L218.532 272L217.118 272.014L214.388 262.242H215.746L217.874 270.516L220.226 262.242H221.654L223.894 270.488L226.036 262.242H227.408Z" fill="white"/>
</g>
<defs>
<clipPath id="clip0_1_244">
<rect width="379" height="338" fill="white"/>
</clipPath>
</defs>
</svg>
