<svg width="379" height="338" viewBox="0 0 379 338" fill="none" xmlns="http://www.w3.org/2000/svg">
<g clip-path="url(#clip0_1_222)">
<path d="M0 20C0 8.95431 8.95431 0 20 0H359C370.046 0 379 8.95431 379 20V318C379 329.046 370.046 338 359 338H20C8.9543 338 0 329.046 0 318V20Z" fill="#F2F2F2"/>
<path d="M162.279 213.312V223H161.005V215.776L157.785 223H156.889L153.655 215.762V223H152.381V213.312H153.753L157.337 221.32L160.921 213.312H162.279ZM170.863 223.098C169.958 223.098 169.132 222.888 168.385 222.468C167.639 222.039 167.046 221.446 166.607 220.69C166.178 219.925 165.963 219.066 165.963 218.114C165.963 217.162 166.178 216.308 166.607 215.552C167.046 214.787 167.639 214.194 168.385 213.774C169.132 213.345 169.958 213.13 170.863 213.13C171.778 213.13 172.609 213.345 173.355 213.774C174.102 214.194 174.69 214.782 175.119 215.538C175.549 216.294 175.763 217.153 175.763 218.114C175.763 219.075 175.549 219.934 175.119 220.69C174.69 221.446 174.102 222.039 173.355 222.468C172.609 222.888 171.778 223.098 170.863 223.098ZM170.863 221.992C171.545 221.992 172.156 221.833 172.697 221.516C173.248 221.199 173.677 220.746 173.985 220.158C174.303 219.57 174.461 218.889 174.461 218.114C174.461 217.33 174.303 216.649 173.985 216.07C173.677 215.482 173.253 215.029 172.711 214.712C172.17 214.395 171.554 214.236 170.863 214.236C170.173 214.236 169.557 214.395 169.015 214.712C168.474 215.029 168.045 215.482 167.727 216.07C167.419 216.649 167.265 217.33 167.265 218.114C167.265 218.889 167.419 219.57 167.727 220.158C168.045 220.746 168.474 221.199 169.015 221.516C169.566 221.833 170.182 221.992 170.863 221.992ZM187.117 223H185.843L180.719 215.23V223H179.445V213.228H180.719L185.843 220.984V213.228H187.117V223ZM197.295 213.242V214.278H194.635V223H193.361V214.278H190.687V213.242H197.295ZM208.381 213.242V223H207.107V218.576H202.137V223H200.863V213.242H202.137V217.526H207.107V213.242H208.381ZM213.831 221.964H217.247V223H212.557V213.242H213.831V221.964ZM227.431 213.242L224.253 219.318V223H222.979V219.318L219.787 213.242H221.201L223.609 218.184L226.017 213.242H227.431Z" fill="#222222"/>
<path d="M174.311 138.372C174.311 141.828 173.447 145.14 171.719 148.308C169.991 151.404 167.435 153.996 164.051 156.084C160.739 158.172 156.743 159.36 152.063 159.648V168.396H146.231V159.648C139.679 159.072 134.351 156.984 130.247 153.384C126.143 149.712 124.055 145.068 123.983 139.452H134.459C134.747 142.476 135.863 145.104 137.807 147.336C139.823 149.568 142.631 150.972 146.231 151.548V124.548C141.407 123.324 137.519 122.064 134.567 120.768C131.615 119.472 129.095 117.456 127.007 114.72C124.919 111.984 123.875 108.312 123.875 103.704C123.875 97.872 125.891 93.048 129.923 89.232C134.027 85.416 139.463 83.292 146.231 82.86V73.896H152.063V82.86C158.183 83.364 163.115 85.344 166.859 88.8C170.603 92.184 172.763 96.612 173.339 102.084H162.863C162.503 99.564 161.387 97.296 159.515 95.28C157.643 93.192 155.159 91.824 152.063 91.176V117.528C156.815 118.752 160.667 120.012 163.619 121.308C166.643 122.532 169.163 124.512 171.179 127.248C173.267 129.984 174.311 133.692 174.311 138.372ZM133.919 103.164C133.919 106.692 134.963 109.392 137.051 111.264C139.139 113.136 142.199 114.684 146.231 115.908V90.96C142.487 91.32 139.499 92.544 137.267 94.632C135.035 96.648 133.919 99.492 133.919 103.164ZM152.063 151.656C155.951 151.224 158.975 149.82 161.135 147.444C163.367 145.068 164.483 142.224 164.483 138.912C164.483 135.384 163.403 132.684 161.243 130.812C159.083 128.868 156.023 127.32 152.063 126.168V151.656ZM211.91 138.048C212.63 142.152 214.286 145.32 216.878 147.552C219.542 149.784 223.106 150.9 227.57 150.9C233.546 150.9 237.938 148.56 240.746 143.88C243.626 139.2 244.994 131.316 244.85 120.228C243.338 123.468 240.818 126.024 237.29 127.896C233.762 129.696 229.838 130.596 225.518 130.596C220.694 130.596 216.374 129.624 212.558 127.68C208.814 125.664 205.862 122.748 203.702 118.932C201.542 115.116 200.462 110.508 200.462 105.108C200.462 97.404 202.694 91.212 207.158 86.532C211.622 81.78 217.958 79.404 226.166 79.404C236.246 79.404 243.302 82.68 247.334 89.232C251.438 95.784 253.49 105.54 253.49 118.5C253.49 127.572 252.662 135.06 251.006 140.964C249.422 146.868 246.686 151.368 242.798 154.464C238.982 157.56 233.726 159.108 227.03 159.108C219.686 159.108 213.962 157.128 209.858 153.168C205.754 149.208 203.414 144.168 202.838 138.048H211.91ZM227.138 122.28C231.962 122.28 235.922 120.804 239.018 117.852C242.114 114.828 243.662 110.76 243.662 105.648C243.662 100.248 242.15 95.892 239.126 92.58C236.102 89.268 231.854 87.612 226.382 87.612C221.342 87.612 217.31 89.196 214.286 92.364C211.334 95.532 209.858 99.708 209.858 104.892C209.858 110.148 211.334 114.36 214.286 117.528C217.238 120.696 221.522 122.28 227.138 122.28Z" fill="#0278ED"/>
<path d="M152.861 67.126C152.033 67.126 151.289 66.982 150.629 66.694C149.981 66.394 149.471 65.986 149.099 65.47C148.727 64.942 148.535 64.336 148.523 63.652H150.269C150.329 64.24 150.569 64.738 150.989 65.146C151.421 65.542 152.045 65.74 152.861 65.74C153.641 65.74 154.253 65.548 154.697 65.164C155.153 64.768 155.381 64.264 155.381 63.652C155.381 63.172 155.249 62.782 154.985 62.482C154.721 62.182 154.391 61.954 153.995 61.798C153.599 61.642 153.065 61.474 152.393 61.294C151.565 61.078 150.899 60.862 150.395 60.646C149.903 60.43 149.477 60.094 149.117 59.638C148.769 59.17 148.595 58.546 148.595 57.766C148.595 57.082 148.769 56.476 149.117 55.948C149.465 55.42 149.951 55.012 150.575 54.724C151.211 54.436 151.937 54.292 152.753 54.292C153.929 54.292 154.889 54.586 155.633 55.174C156.389 55.762 156.815 56.542 156.911 57.514H155.111C155.051 57.034 154.799 56.614 154.355 56.254C153.911 55.882 153.323 55.696 152.591 55.696C151.907 55.696 151.349 55.876 150.917 56.236C150.485 56.584 150.269 57.076 150.269 57.712C150.269 58.168 150.395 58.54 150.647 58.828C150.911 59.116 151.229 59.338 151.601 59.494C151.985 59.638 152.519 59.806 153.203 59.998C154.031 60.226 154.697 60.454 155.201 60.682C155.705 60.898 156.137 61.24 156.497 61.708C156.857 62.164 157.037 62.788 157.037 63.58C157.037 64.192 156.875 64.768 156.551 65.308C156.227 65.848 155.747 66.286 155.111 66.622C154.475 66.958 153.725 67.126 152.861 67.126ZM161.446 58.486V64.3C161.446 64.78 161.548 65.122 161.752 65.326C161.956 65.518 162.31 65.614 162.814 65.614H164.02V67H162.544C161.632 67 160.948 66.79 160.492 66.37C160.036 65.95 159.808 65.26 159.808 64.3V58.486H158.53V57.136H159.808V54.652H161.446V57.136H164.02V58.486H161.446ZM165.392 62.032C165.392 61.024 165.596 60.142 166.004 59.386C166.412 58.618 166.97 58.024 167.678 57.604C168.398 57.184 169.196 56.974 170.072 56.974C170.936 56.974 171.686 57.16 172.322 57.532C172.958 57.904 173.432 58.372 173.744 58.936V57.136H175.4V67H173.744V65.164C173.42 65.74 172.934 66.22 172.286 66.604C171.65 66.976 170.906 67.162 170.054 67.162C169.178 67.162 168.386 66.946 167.678 66.514C166.97 66.082 166.412 65.476 166.004 64.696C165.596 63.916 165.392 63.028 165.392 62.032ZM173.744 62.05C173.744 61.306 173.594 60.658 173.294 60.106C172.994 59.554 172.586 59.134 172.07 58.846C171.566 58.546 171.008 58.396 170.396 58.396C169.784 58.396 169.226 58.54 168.722 58.828C168.218 59.116 167.816 59.536 167.516 60.088C167.216 60.64 167.066 61.288 167.066 62.032C167.066 62.788 167.216 63.448 167.516 64.012C167.816 64.564 168.218 64.99 168.722 65.29C169.226 65.578 169.784 65.722 170.396 65.722C171.008 65.722 171.566 65.578 172.07 65.29C172.586 64.99 172.994 64.564 173.294 64.012C173.594 63.448 173.744 62.794 173.744 62.05ZM182.974 56.956C184.174 56.956 185.146 57.322 185.89 58.054C186.634 58.774 187.006 59.818 187.006 61.186V67H185.386V61.42C185.386 60.436 185.14 59.686 184.648 59.17C184.156 58.642 183.484 58.378 182.632 58.378C181.768 58.378 181.078 58.648 180.562 59.188C180.058 59.728 179.806 60.514 179.806 61.546V67H178.168V57.136H179.806V58.54C180.13 58.036 180.568 57.646 181.12 57.37C181.684 57.094 182.302 56.956 182.974 56.956ZM189.07 62.032C189.07 61.024 189.274 60.142 189.682 59.386C190.09 58.618 190.648 58.024 191.356 57.604C192.076 57.184 192.88 56.974 193.768 56.974C194.536 56.974 195.25 57.154 195.91 57.514C196.57 57.862 197.074 58.324 197.422 58.9V53.68H199.078V67H197.422V65.146C197.098 65.734 196.618 66.22 195.982 66.604C195.346 66.976 194.602 67.162 193.75 67.162C192.874 67.162 192.076 66.946 191.356 66.514C190.648 66.082 190.09 65.476 189.682 64.696C189.274 63.916 189.07 63.028 189.07 62.032ZM197.422 62.05C197.422 61.306 197.272 60.658 196.972 60.106C196.672 59.554 196.264 59.134 195.748 58.846C195.244 58.546 194.686 58.396 194.074 58.396C193.462 58.396 192.904 58.54 192.4 58.828C191.896 59.116 191.494 59.536 191.194 60.088C190.894 60.64 190.744 61.288 190.744 62.032C190.744 62.788 190.894 63.448 191.194 64.012C191.494 64.564 191.896 64.99 192.4 65.29C192.904 65.578 193.462 65.722 194.074 65.722C194.686 65.722 195.244 65.578 195.748 65.29C196.264 64.99 196.672 64.564 196.972 64.012C197.272 63.448 197.422 62.794 197.422 62.05ZM201.234 62.032C201.234 61.024 201.438 60.142 201.846 59.386C202.254 58.618 202.812 58.024 203.52 57.604C204.24 57.184 205.038 56.974 205.914 56.974C206.778 56.974 207.528 57.16 208.164 57.532C208.8 57.904 209.274 58.372 209.586 58.936V57.136H211.242V67H209.586V65.164C209.262 65.74 208.776 66.22 208.128 66.604C207.492 66.976 206.748 67.162 205.896 67.162C205.02 67.162 204.228 66.946 203.52 66.514C202.812 66.082 202.254 65.476 201.846 64.696C201.438 63.916 201.234 63.028 201.234 62.032ZM209.586 62.05C209.586 61.306 209.436 60.658 209.136 60.106C208.836 59.554 208.428 59.134 207.912 58.846C207.408 58.546 206.85 58.396 206.238 58.396C205.626 58.396 205.068 58.54 204.564 58.828C204.06 59.116 203.658 59.536 203.358 60.088C203.058 60.64 202.908 61.288 202.908 62.032C202.908 62.788 203.058 63.448 203.358 64.012C203.658 64.564 204.06 64.99 204.564 65.29C205.068 65.578 205.626 65.722 206.238 65.722C206.85 65.722 207.408 65.578 207.912 65.29C208.428 64.99 208.836 64.564 209.136 64.012C209.436 63.448 209.586 62.794 209.586 62.05ZM215.648 58.738C215.936 58.174 216.344 57.736 216.872 57.424C217.412 57.112 218.066 56.956 218.834 56.956V58.648H218.402C216.566 58.648 215.648 59.644 215.648 61.636V67H214.01V57.136H215.648V58.738ZM220.113 62.032C220.113 61.024 220.317 60.142 220.725 59.386C221.133 58.618 221.691 58.024 222.399 57.604C223.119 57.184 223.923 56.974 224.811 56.974C225.579 56.974 226.293 57.154 226.953 57.514C227.613 57.862 228.117 58.324 228.465 58.9V53.68H230.121V67H228.465V65.146C228.141 65.734 227.661 66.22 227.025 66.604C226.389 66.976 225.645 67.162 224.793 67.162C223.917 67.162 223.119 66.946 222.399 66.514C221.691 66.082 221.133 65.476 220.725 64.696C220.317 63.916 220.113 63.028 220.113 62.032ZM228.465 62.05C228.465 61.306 228.315 60.658 228.015 60.106C227.715 59.554 227.307 59.134 226.791 58.846C226.287 58.546 225.729 58.396 225.117 58.396C224.505 58.396 223.947 58.54 223.443 58.828C222.939 59.116 222.537 59.536 222.237 60.088C221.937 60.64 221.787 61.288 221.787 62.032C221.787 62.788 221.937 63.448 222.237 64.012C222.537 64.564 222.939 64.99 223.443 65.29C223.947 65.578 224.505 65.722 225.117 65.722C225.729 65.722 226.287 65.578 226.791 65.29C227.307 64.99 227.715 64.564 228.015 64.012C228.315 63.448 228.465 62.794 228.465 62.05Z" fill="#0278ED"/>
<path d="M125 252C125 249.791 126.791 248 129 248H250C252.209 248 254 249.791 254 252V284C254 286.209 252.209 288 250 288H129C126.791 288 125 286.209 125 284V252Z" fill="#0278ED"/>
<path d="M157.239 266.974C157.594 267.03 157.916 267.175 158.205 267.408C158.504 267.641 158.737 267.931 158.905 268.276C159.083 268.621 159.171 268.99 159.171 269.382C159.171 269.877 159.045 270.325 158.793 270.726C158.541 271.118 158.173 271.431 157.687 271.664C157.211 271.888 156.647 272 155.993 272H152.353V262.242H155.853C156.516 262.242 157.081 262.354 157.547 262.578C158.014 262.793 158.364 263.087 158.597 263.46C158.831 263.833 158.947 264.253 158.947 264.72C158.947 265.299 158.789 265.779 158.471 266.162C158.163 266.535 157.753 266.806 157.239 266.974ZM153.627 266.456H155.769C156.367 266.456 156.829 266.316 157.155 266.036C157.482 265.756 157.645 265.369 157.645 264.874C157.645 264.379 157.482 263.992 157.155 263.712C156.829 263.432 156.357 263.292 155.741 263.292H153.627V266.456ZM155.881 270.95C156.516 270.95 157.011 270.801 157.365 270.502C157.72 270.203 157.897 269.788 157.897 269.256C157.897 268.715 157.711 268.29 157.337 267.982C156.964 267.665 156.465 267.506 155.839 267.506H153.627V270.95H155.881ZM164.185 262.242V268.416C164.185 269.284 164.395 269.928 164.815 270.348C165.245 270.768 165.837 270.978 166.593 270.978C167.34 270.978 167.923 270.768 168.343 270.348C168.773 269.928 168.987 269.284 168.987 268.416V262.242H170.261V268.402C170.261 269.214 170.098 269.9 169.771 270.46C169.445 271.011 169.001 271.421 168.441 271.692C167.891 271.963 167.27 272.098 166.579 272.098C165.889 272.098 165.263 271.963 164.703 271.692C164.153 271.421 163.714 271.011 163.387 270.46C163.07 269.9 162.911 269.214 162.911 268.402V262.242H164.185ZM181.219 262.242L178.041 268.318V272H176.767V268.318L173.575 262.242H174.989L177.397 267.184L179.805 262.242H181.219ZM197.967 272H196.693L191.569 264.23V272H190.295V262.228H191.569L196.693 269.984V262.228H197.967V272ZM206.563 272.098C205.657 272.098 204.831 271.888 204.085 271.468C203.338 271.039 202.745 270.446 202.307 269.69C201.877 268.925 201.663 268.066 201.663 267.114C201.663 266.162 201.877 265.308 202.307 264.552C202.745 263.787 203.338 263.194 204.085 262.774C204.831 262.345 205.657 262.13 206.563 262.13C207.477 262.13 208.308 262.345 209.055 262.774C209.801 263.194 210.389 263.782 210.819 264.538C211.248 265.294 211.463 266.153 211.463 267.114C211.463 268.075 211.248 268.934 210.819 269.69C210.389 270.446 209.801 271.039 209.055 271.468C208.308 271.888 207.477 272.098 206.563 272.098ZM206.563 270.992C207.244 270.992 207.855 270.833 208.397 270.516C208.947 270.199 209.377 269.746 209.685 269.158C210.002 268.57 210.161 267.889 210.161 267.114C210.161 266.33 210.002 265.649 209.685 265.07C209.377 264.482 208.952 264.029 208.411 263.712C207.869 263.395 207.253 263.236 206.563 263.236C205.872 263.236 205.256 263.395 204.715 263.712C204.173 264.029 203.744 264.482 203.427 265.07C203.119 265.649 202.965 266.33 202.965 267.114C202.965 267.889 203.119 268.57 203.427 269.158C203.744 269.746 204.173 270.199 204.715 270.516C205.265 270.833 205.881 270.992 206.563 270.992ZM227.408 262.242L224.58 272H223.152L220.884 264.146L218.532 272L217.118 272.014L214.388 262.242H215.746L217.874 270.516L220.226 262.242H221.654L223.894 270.488L226.036 262.242H227.408Z" fill="white"/>
</g>
<defs>
<clipPath id="clip0_1_222">
<rect width="379" height="338" fill="white"/>
</clipPath>
</defs>
</svg>
