<svg width="379" height="338" viewBox="0 0 379 338" fill="none" xmlns="http://www.w3.org/2000/svg">
<g clip-path="url(#clip0_1_233)">
<path d="M0 20C0 8.95431 8.95431 0 20 0H359C370.046 0 379 8.95431 379 20V318C379 329.046 370.046 338 359 338H20C8.9543 338 0 329.046 0 318V20Z" fill="#F2F2F2"/>
<path d="M154.714 220.83H150.458L149.674 223H148.33L151.858 213.298H153.328L156.842 223H155.498L154.714 220.83ZM154.35 219.794L152.586 214.866L150.822 219.794H154.35ZM168.052 223H166.778L161.654 215.23V223H160.38V213.228H161.654L166.778 220.984V213.228H168.052V223ZM179.896 223H178.622L173.498 215.23V223H172.224V213.228H173.498L178.622 220.984V213.228H179.896V223ZM185.313 213.242V219.416C185.313 220.284 185.523 220.928 185.943 221.348C186.373 221.768 186.965 221.978 187.721 221.978C188.468 221.978 189.051 221.768 189.471 221.348C189.901 220.928 190.115 220.284 190.115 219.416V213.242H191.389V219.402C191.389 220.214 191.226 220.9 190.899 221.46C190.573 222.011 190.129 222.421 189.569 222.692C189.019 222.963 188.398 223.098 187.707 223.098C187.017 223.098 186.391 222.963 185.831 222.692C185.281 222.421 184.842 222.011 184.515 221.46C184.198 220.9 184.039 220.214 184.039 219.402V213.242H185.313ZM201.283 220.83H197.027L196.243 223H194.899L198.427 213.298H199.897L203.411 223H202.067L201.283 220.83ZM200.919 219.794L199.155 214.866L197.391 219.794H200.919ZM208.222 221.964H211.638V223H206.948V213.242H208.222V221.964ZM216.265 221.964H219.681V223H214.991V213.242H216.265V221.964ZM229.866 213.242L226.688 219.318V223H225.414V219.318L222.222 213.242H223.636L226.044 218.184L228.452 213.242H229.866Z" fill="#222222"/>
<path d="M137.539 137.945C137.539 141.305 136.699 144.525 135.019 147.605C133.339 150.615 130.854 153.135 127.564 155.165C124.344 157.195 120.459 158.35 115.909 158.63V167.135H110.239V158.63C103.869 158.07 98.6886 156.04 94.6986 152.54C90.7086 148.97 88.6786 144.455 88.6086 138.995H98.7936C99.0736 141.935 100.159 144.49 102.049 146.66C104.009 148.83 106.739 150.195 110.239 150.755V124.505C105.549 123.315 101.769 122.09 98.8986 120.83C96.0286 119.57 93.5786 117.61 91.5486 114.95C89.5186 112.29 88.5036 108.72 88.5036 104.24C88.5036 98.57 90.4636 93.88 94.3836 90.17C98.3736 86.46 103.659 84.395 110.239 83.975V75.26H115.909V83.975C121.859 84.465 126.654 86.39 130.294 89.75C133.934 93.04 136.034 97.345 136.594 102.665H126.409C126.059 100.215 124.974 98.01 123.154 96.05C121.334 94.02 118.919 92.69 115.909 92.06V117.68C120.529 118.87 124.274 120.095 127.144 121.355C130.084 122.545 132.534 124.47 134.494 127.13C136.524 129.79 137.539 133.395 137.539 137.945ZM98.2686 103.715C98.2686 107.145 99.2836 109.77 101.314 111.59C103.344 113.41 106.319 114.915 110.239 116.105V91.85C106.599 92.2 103.694 93.39 101.524 95.42C99.3536 97.38 98.2686 100.145 98.2686 103.715ZM115.909 150.86C119.689 150.44 122.629 149.075 124.729 146.765C126.899 144.455 127.984 141.69 127.984 138.47C127.984 135.04 126.934 132.415 124.834 130.595C122.734 128.705 119.759 127.2 115.909 126.08V150.86ZM174.316 137.63C175.016 141.62 176.626 144.7 179.146 146.87C181.736 149.04 185.201 150.125 189.541 150.125C195.351 150.125 199.621 147.85 202.351 143.3C205.151 138.75 206.481 131.085 206.341 120.305C204.871 123.455 202.421 125.94 198.991 127.76C195.561 129.51 191.746 130.385 187.546 130.385C182.856 130.385 178.656 129.44 174.946 127.55C171.306 125.59 168.436 122.755 166.336 119.045C164.236 115.335 163.186 110.855 163.186 105.605C163.186 98.115 165.356 92.095 169.696 87.545C174.036 82.925 180.196 80.615 188.176 80.615C197.976 80.615 204.836 83.8 208.756 90.17C212.746 96.54 214.741 106.025 214.741 118.625C214.741 127.445 213.936 134.725 212.326 140.465C210.786 146.205 208.126 150.58 204.346 153.59C200.636 156.6 195.526 158.105 189.016 158.105C181.876 158.105 176.311 156.18 172.321 152.33C168.331 148.48 166.056 143.58 165.496 137.63H174.316ZM189.121 122.3C193.811 122.3 197.661 120.865 200.671 117.995C203.681 115.055 205.186 111.1 205.186 106.13C205.186 100.88 203.716 96.645 200.776 93.425C197.836 90.205 193.706 88.595 188.386 88.595C183.486 88.595 179.566 90.135 176.626 93.215C173.756 96.295 172.321 100.355 172.321 105.395C172.321 110.505 173.756 114.6 176.626 117.68C179.496 120.76 183.661 122.3 189.121 122.3ZM248.454 137.63C249.154 141.62 250.764 144.7 253.284 146.87C255.874 149.04 259.339 150.125 263.679 150.125C269.489 150.125 273.759 147.85 276.489 143.3C279.289 138.75 280.619 131.085 280.479 120.305C279.009 123.455 276.559 125.94 273.129 127.76C269.699 129.51 265.884 130.385 261.684 130.385C256.994 130.385 252.794 129.44 249.084 127.55C245.444 125.59 242.574 122.755 240.474 119.045C238.374 115.335 237.324 110.855 237.324 105.605C237.324 98.115 239.494 92.095 243.834 87.545C248.174 82.925 254.334 80.615 262.314 80.615C272.114 80.615 278.974 83.8 282.894 90.17C286.884 96.54 288.879 106.025 288.879 118.625C288.879 127.445 288.074 134.725 286.464 140.465C284.924 146.205 282.264 150.58 278.484 153.59C274.774 156.6 269.664 158.105 263.154 158.105C256.014 158.105 250.449 156.18 246.459 152.33C242.469 148.48 240.194 143.58 239.634 137.63H248.454ZM263.259 122.3C267.949 122.3 271.799 120.865 274.809 117.995C277.819 115.055 279.324 111.1 279.324 106.13C279.324 100.88 277.854 96.645 274.914 93.425C271.974 90.205 267.844 88.595 262.524 88.595C257.624 88.595 253.704 90.135 250.764 93.215C247.894 96.295 246.459 100.355 246.459 105.395C246.459 110.505 247.894 114.6 250.764 117.68C253.634 120.76 257.799 122.3 263.259 122.3Z" fill="#FF5437"/>
<path d="M159.823 58.619C159.823 59.605 159.483 60.4267 158.803 61.084C158.135 61.73 157.109 62.053 155.726 62.053H153.448V67H151.901V55.151H155.726C157.064 55.151 158.078 55.474 158.769 56.12C159.472 56.766 159.823 57.599 159.823 58.619ZM155.726 60.778C156.588 60.778 157.222 60.591 157.63 60.217C158.038 59.843 158.242 59.3103 158.242 58.619C158.242 57.157 157.404 56.426 155.726 56.426H153.448V60.778H155.726ZM163.293 59.197C163.565 58.6643 163.95 58.2507 164.449 57.956C164.959 57.6613 165.577 57.514 166.302 57.514V59.112H165.894C164.16 59.112 163.293 60.0527 163.293 61.934V67H161.746V57.684H163.293V59.197ZM176.588 61.985C176.588 62.2797 176.571 62.5913 176.537 62.92H169.091C169.147 63.838 169.459 64.5577 170.026 65.079C170.604 65.589 171.301 65.844 172.117 65.844C172.785 65.844 173.341 65.691 173.783 65.385C174.236 65.0677 174.553 64.6483 174.735 64.127H176.401C176.151 65.0223 175.653 65.7533 174.905 66.32C174.157 66.8753 173.227 67.153 172.117 67.153C171.233 67.153 170.439 66.9547 169.737 66.558C169.045 66.1613 168.501 65.6003 168.105 64.875C167.708 64.1383 167.51 63.2883 167.51 62.325C167.51 61.3617 167.702 60.5173 168.088 59.792C168.473 59.0667 169.011 58.5113 169.703 58.126C170.405 57.7293 171.21 57.531 172.117 57.531C173.001 57.531 173.783 57.7237 174.463 58.109C175.143 58.4943 175.664 59.027 176.027 59.707C176.401 60.3757 176.588 61.135 176.588 61.985ZM174.99 61.662C174.99 61.0727 174.859 60.5683 174.599 60.149C174.338 59.7183 173.981 59.3953 173.528 59.18C173.086 58.9533 172.593 58.84 172.049 58.84C171.267 58.84 170.598 59.0893 170.043 59.588C169.499 60.0867 169.187 60.778 169.108 61.662H174.99ZM189.833 57.514C190.558 57.514 191.204 57.667 191.771 57.973C192.337 58.2677 192.785 58.7153 193.114 59.316C193.442 59.9167 193.607 60.6477 193.607 61.509V67H192.077V61.73C192.077 60.8007 191.844 60.0923 191.38 59.605C190.926 59.1063 190.309 58.857 189.527 58.857C188.722 58.857 188.082 59.1177 187.606 59.639C187.13 60.149 186.892 60.8913 186.892 61.866V67H185.362V61.73C185.362 60.8007 185.129 60.0923 184.665 59.605C184.211 59.1063 183.594 58.857 182.812 58.857C182.007 58.857 181.367 59.1177 180.891 59.639C180.415 60.149 180.177 60.8913 180.177 61.866V67H178.63V57.684H180.177V59.027C180.483 58.5397 180.891 58.1657 181.401 57.905C181.922 57.6443 182.494 57.514 183.118 57.514C183.9 57.514 184.591 57.6897 185.192 58.041C185.792 58.3923 186.24 58.908 186.535 59.588C186.795 58.9307 187.226 58.4207 187.827 58.058C188.427 57.6953 189.096 57.514 189.833 57.514ZM196.943 56.171C196.649 56.171 196.399 56.069 196.195 55.865C195.991 55.661 195.889 55.4117 195.889 55.117C195.889 54.8223 195.991 54.573 196.195 54.369C196.399 54.165 196.649 54.063 196.943 54.063C197.227 54.063 197.465 54.165 197.657 54.369C197.861 54.573 197.963 54.8223 197.963 55.117C197.963 55.4117 197.861 55.661 197.657 55.865C197.465 56.069 197.227 56.171 196.943 56.171ZM197.691 57.684V67H196.144V57.684H197.691ZM208.59 57.684V67H207.043V65.623C206.748 66.099 206.335 66.473 205.802 66.745C205.281 67.0057 204.703 67.136 204.068 67.136C203.343 67.136 202.691 66.9887 202.113 66.694C201.535 66.388 201.076 65.9347 200.736 65.334C200.407 64.7333 200.243 64.0023 200.243 63.141V57.684H201.773V62.937C201.773 63.855 202.005 64.5633 202.47 65.062C202.935 65.5493 203.569 65.793 204.374 65.793C205.201 65.793 205.853 65.538 206.329 65.028C206.805 64.518 207.043 63.7757 207.043 62.801V57.684H208.59ZM222.405 57.514C223.13 57.514 223.776 57.667 224.343 57.973C224.91 58.2677 225.357 58.7153 225.686 59.316C226.015 59.9167 226.179 60.6477 226.179 61.509V67H224.649V61.73C224.649 60.8007 224.417 60.0923 223.952 59.605C223.499 59.1063 222.881 58.857 222.099 58.857C221.294 58.857 220.654 59.1177 220.178 59.639C219.702 60.149 219.464 60.8913 219.464 61.866V67H217.934V61.73C217.934 60.8007 217.702 60.0923 217.237 59.605C216.784 59.1063 216.166 58.857 215.384 58.857C214.579 58.857 213.939 59.1177 213.463 59.639C212.987 60.149 212.749 60.8913 212.749 61.866V67H211.202V57.684H212.749V59.027C213.055 58.5397 213.463 58.1657 213.973 57.905C214.494 57.6443 215.067 57.514 215.69 57.514C216.472 57.514 217.163 57.6897 217.764 58.041C218.365 58.3923 218.812 58.908 219.107 59.588C219.368 58.9307 219.798 58.4207 220.399 58.058C221 57.6953 221.668 57.514 222.405 57.514Z" fill="#FF5437"/>
<path d="M125 252C125 249.791 126.791 248 129 248H250C252.209 248 254 249.791 254 252V284C254 286.209 252.209 288 250 288H129C126.791 288 125 286.209 125 284V252Z" fill="#FF5437"/>
<path d="M157.239 266.974C157.594 267.03 157.916 267.175 158.205 267.408C158.504 267.641 158.737 267.931 158.905 268.276C159.083 268.621 159.171 268.99 159.171 269.382C159.171 269.877 159.045 270.325 158.793 270.726C158.541 271.118 158.173 271.431 157.687 271.664C157.211 271.888 156.647 272 155.993 272H152.353V262.242H155.853C156.516 262.242 157.081 262.354 157.547 262.578C158.014 262.793 158.364 263.087 158.597 263.46C158.831 263.833 158.947 264.253 158.947 264.72C158.947 265.299 158.789 265.779 158.471 266.162C158.163 266.535 157.753 266.806 157.239 266.974ZM153.627 266.456H155.769C156.367 266.456 156.829 266.316 157.155 266.036C157.482 265.756 157.645 265.369 157.645 264.874C157.645 264.379 157.482 263.992 157.155 263.712C156.829 263.432 156.357 263.292 155.741 263.292H153.627V266.456ZM155.881 270.95C156.516 270.95 157.011 270.801 157.365 270.502C157.72 270.203 157.897 269.788 157.897 269.256C157.897 268.715 157.711 268.29 157.337 267.982C156.964 267.665 156.465 267.506 155.839 267.506H153.627V270.95H155.881ZM164.185 262.242V268.416C164.185 269.284 164.395 269.928 164.815 270.348C165.245 270.768 165.837 270.978 166.593 270.978C167.34 270.978 167.923 270.768 168.343 270.348C168.773 269.928 168.987 269.284 168.987 268.416V262.242H170.261V268.402C170.261 269.214 170.098 269.9 169.771 270.46C169.445 271.011 169.001 271.421 168.441 271.692C167.891 271.963 167.27 272.098 166.579 272.098C165.889 272.098 165.263 271.963 164.703 271.692C164.153 271.421 163.714 271.011 163.387 270.46C163.07 269.9 162.911 269.214 162.911 268.402V262.242H164.185ZM181.219 262.242L178.041 268.318V272H176.767V268.318L173.575 262.242H174.989L177.397 267.184L179.805 262.242H181.219ZM197.967 272H196.693L191.569 264.23V272H190.295V262.228H191.569L196.693 269.984V262.228H197.967V272ZM206.563 272.098C205.657 272.098 204.831 271.888 204.085 271.468C203.338 271.039 202.745 270.446 202.307 269.69C201.877 268.925 201.663 268.066 201.663 267.114C201.663 266.162 201.877 265.308 202.307 264.552C202.745 263.787 203.338 263.194 204.085 262.774C204.831 262.345 205.657 262.13 206.563 262.13C207.477 262.13 208.308 262.345 209.055 262.774C209.801 263.194 210.389 263.782 210.819 264.538C211.248 265.294 211.463 266.153 211.463 267.114C211.463 268.075 211.248 268.934 210.819 269.69C210.389 270.446 209.801 271.039 209.055 271.468C208.308 271.888 207.477 272.098 206.563 272.098ZM206.563 270.992C207.244 270.992 207.855 270.833 208.397 270.516C208.947 270.199 209.377 269.746 209.685 269.158C210.002 268.57 210.161 267.889 210.161 267.114C210.161 266.33 210.002 265.649 209.685 265.07C209.377 264.482 208.952 264.029 208.411 263.712C207.869 263.395 207.253 263.236 206.563 263.236C205.872 263.236 205.256 263.395 204.715 263.712C204.173 264.029 203.744 264.482 203.427 265.07C203.119 265.649 202.965 266.33 202.965 267.114C202.965 267.889 203.119 268.57 203.427 269.158C203.744 269.746 204.173 270.199 204.715 270.516C205.265 270.833 205.881 270.992 206.563 270.992ZM227.408 262.242L224.58 272H223.152L220.884 264.146L218.532 272L217.118 272.014L214.388 262.242H215.746L217.874 270.516L220.226 262.242H221.654L223.894 270.488L226.036 262.242H227.408Z" fill="white"/>
</g>
<defs>
<clipPath id="clip0_1_233">
<rect width="379" height="338" fill="white"/>
</clipPath>
</defs>
</svg>
